<?xml version="1.0" standalone="no"?>
<!DOCTYPE svg PUBLIC "-//W3C//DTD SVG 20010904//EN"
 "http://www.w3.org/TR/2001/REC-SVG-20010904/DTD/svg10.dtd">
<svg version="1.0" xmlns="http://www.w3.org/2000/svg"
 width="1024.000000pt" height="1024.000000pt" viewBox="0 0 1024.000000 1024.000000"
 preserveAspectRatio="xMidYMid meet">

<g transform="translate(0.000000,1024.000000) scale(0.100000,-0.100000)"
fill="#000000" stroke="none">
<path d="M4545 9778 c-108 -12 -301 -52 -405 -83 -265 -80 -374 -96 -523 -76
-48 7 -94 14 -102 17 -8 4 -18 -1 -21 -10 -7 -19 74 -116 135 -161 22 -16 41
-32 41 -35 0 -3 -33 -17 -73 -32 -183 -69 -376 -223 -488 -391 l-62 -92 106
-5 106 -5 -46 -60 c-89 -119 -140 -252 -151 -400 l-7 -87 -124 -79 c-656 -420
-1175 -1034 -1461 -1729 -128 -312 -209 -626 -256 -995 -26 -198 -26 -671 -1
-875 49 -394 146 -768 290 -1117 l54 -129 -41 -24 c-56 -32 -139 -112 -176
-169 -42 -66 -70 -153 -77 -241 -6 -75 -18 -111 -56 -162 l-21 -28 -183 0
c-101 0 -183 -2 -183 -5 0 -2 65 -487 145 -1076 101 -743 150 -1075 160 -1085
11 -12 224 -14 1392 -14 l1378 0 603 -159 602 -160 578 160 577 159 1453 0
c1153 0 1454 3 1457 12 8 23 143 2111 137 2126 -4 12 -30 13 -159 7 -131 -6
-153 -5 -153 8 0 8 -13 41 -30 73 -18 36 -30 75 -30 100 0 170 -100 354 -241
446 -36 23 -48 36 -43 47 161 386 279 859 325 1316 19 178 16 608 -5 793 -97
883 -458 1640 -1067 2244 -202 199 -465 405 -695 544 l-114 69 0 55 c0 136
-58 373 -126 517 -106 224 -282 393 -494 476 -190 74 -398 68 -572 -16 l-66
-32 -84 62 c-210 158 -462 262 -718 298 -120 16 -354 18 -485 3z m566 -196
c100 -27 188 -64 265 -113 65 -42 184 -161 218 -220 13 -22 -3 -9 -48 39 -115
121 -261 204 -415 237 -118 25 -124 22 -63 -31 29 -26 51 -48 48 -51 -2 -2
-35 5 -73 16 -107 31 -225 49 -404 61 -168 10 -339 36 -339 50 0 4 51 13 113
19 61 6 128 13 147 15 19 2 134 3 255 1 185 -2 232 -5 296 -23z m-857 -137
c24 -14 75 -36 114 -49 78 -27 232 -104 232 -116 0 -17 -32 -19 -102 -5 -171
32 -347 28 -521 -11 -79 -18 -77 -22 33 -50 l75 -19 -45 -7 c-25 -3 -80 -7
-123 -7 -87 -1 -249 -31 -330 -61 -52 -20 -189 -51 -195 -45 -2 1 22 24 54 49
124 101 280 175 444 208 78 16 127 19 277 16 176 -3 211 2 108 16 -79 11 -347
66 -359 74 -20 12 87 30 192 31 93 1 108 -1 146 -24z m2130 -115 c133 -34 277
-125 337 -213 l22 -32 -39 36 c-86 79 -199 141 -312 170 -108 28 -261 27 -367
-2 -44 -12 -93 -23 -110 -25 -25 -3 -21 1 21 21 131 64 305 82 448 45z m-1730
-119 c-111 -74 -222 -169 -294 -252 -91 -106 -250 -267 -320 -323 -102 -83
-132 -97 -56 -25 38 35 138 143 222 239 149 171 202 227 255 266 14 10 51 39
82 63 53 40 155 90 186 91 8 0 -26 -27 -75 -59z m556 -11 c29 -6 76 -21 104
-34 45 -22 47 -24 16 -18 -19 4 -93 7 -165 7 -148 -1 -217 -15 -332 -70 -79
-37 -96 -52 -34 -30 67 23 192 38 271 31 41 -4 125 -20 185 -36 l110 -29 -105
7 c-142 10 -252 5 -325 -13 -124 -32 -248 -106 -321 -194 l-28 -34 30 15 c76
40 80 33 18 -35 -70 -76 -118 -161 -150 -262 l-22 -70 -21 45 c-11 25 -21 54
-21 65 -1 11 -5 28 -9 39 -6 15 -15 6 -53 -50 -25 -38 -55 -85 -67 -104 -28
-47 -27 -39 15 81 88 254 240 465 422 586 136 91 329 132 482 103z m1245 -54
c57 -27 225 -147 225 -161 0 -2 -46 18 -102 45 -57 28 -139 59 -182 70 -145
37 -348 22 -490 -36 l-60 -24 25 26 c64 68 164 103 324 114 151 10 174 7 260
-34z m-2225 -56 c-14 -5 -94 -27 -178 -50 -183 -49 -276 -84 -399 -152 -160
-88 -296 -211 -379 -342 -42 -66 -56 -66 -34 -1 77 224 305 392 670 492 108
29 271 61 315 61 29 0 29 0 5 -8z m2081 -116 c83 -25 187 -83 249 -141 73 -67
124 -163 150 -280 26 -116 25 -118 -13 -48 -93 173 -209 301 -318 353 -167 80
-342 82 -508 7 -106 -49 -102 -20 5 45 95 57 175 79 285 80 59 0 116 -6 150
-16z m73 -215 c143 -53 236 -210 236 -395 0 -30 -3 -54 -8 -54 -4 0 -17 28
-30 63 -42 116 -126 202 -242 249 -46 18 -75 22 -177 22 -67 1 -119 4 -115 8
15 15 129 38 187 38 33 0 95 -9 138 -19 42 -10 77 -17 77 -16 0 7 -138 90
-185 112 l-50 24 57 -6 c32 -3 82 -14 112 -26z m-1486 -45 c-29 -36 -80 -96
-112 -133 -33 -36 -89 -111 -124 -166 -83 -128 -84 -128 -67 -64 25 94 82 196
152 270 58 62 175 156 196 158 4 1 -16 -29 -45 -65z m-754 -226 c-45 -65 -146
-161 -222 -212 -135 -90 -269 -134 -433 -143 -59 -3 -119 -2 -135 2 -25 6 -16
10 62 26 253 52 537 188 704 337 25 22 47 38 49 36 2 -2 -9 -23 -25 -46z
m1801 -259 c49 -14 104 -69 139 -141 20 -42 29 -83 41 -195 20 -196 37 -241
152 -405 76 -109 98 -168 61 -168 -5 0 -7 7 -4 16 11 29 -22 72 -77 98 -119
56 -217 60 -397 15 -69 -16 -195 -46 -280 -64 -85 -19 -164 -37 -176 -40 -17
-4 -23 2 -31 28 l-9 32 -17 -32 c-22 -41 -57 -44 -85 -8 -17 21 -21 22 -26 9
-10 -25 -7 -47 10 -79 14 -28 14 -30 -8 -47 -13 -10 -47 -25 -77 -34 -63 -19
-125 -14 -187 16 l-41 21 13 37 c14 40 17 96 5 125 -6 15 -9 12 -24 -18 -33
-70 -75 -69 -322 5 -149 45 -196 58 -269 74 -27 7 -24 9 60 59 113 67 248 195
320 303 55 83 115 209 129 273 6 27 10 32 28 27 217 -59 383 -46 692 54 69 23
144 45 167 50 51 11 157 5 213 -11z m-2875 -310 c-20 -133 -94 -241 -207 -305
-29 -16 -53 -32 -53 -35 0 -12 115 -67 175 -85 39 -11 92 -17 153 -16 l93 1
-23 -41 c-48 -84 -183 -178 -258 -178 -11 0 -20 -6 -20 -14 0 -21 83 -109 124
-131 20 -11 36 -25 36 -31 0 -15 -56 -63 -87 -75 -13 -5 -23 -12 -23 -17 0
-19 84 -103 126 -128 24 -14 44 -29 44 -32 0 -4 5 -36 11 -71 14 -91 65 -192
148 -296 39 -49 81 -110 93 -135 29 -59 35 -144 14 -195 -17 -39 -17 -40 5
-58 12 -10 48 -25 81 -34 l58 -16 0 -92 c0 -104 12 -181 42 -275 54 -168 161
-322 290 -417 26 -19 48 -38 48 -42 0 -5 -29 -11 -65 -15 -202 -21 -431 -152
-539 -309 l-37 -54 -67 -6 c-91 -9 -179 -53 -252 -128 -48 -49 -64 -59 -92
-59 -52 0 -145 -27 -210 -62 -68 -36 -163 -133 -196 -200 -22 -45 -24 -46 -79
-53 -209 -26 -338 -131 -377 -307 -5 -20 -19 -34 -54 -52 -56 -29 -135 -96
-173 -149 l-28 -39 -16 39 c-91 214 -187 586 -226 873 -28 215 -31 613 -6 820
124 992 631 1851 1452 2458 114 84 115 84 95 -39z m4152 10 c189 -135 295
-226 463 -394 272 -271 446 -510 648 -885 118 -220 243 -583 301 -875 46 -231
57 -348 63 -635 5 -254 3 -290 -20 -475 -15 -110 -44 -277 -66 -370 -36 -156
-133 -461 -164 -521 l-13 -25 -29 41 c-38 55 -126 135 -189 170 -49 29 -50 30
-47 74 7 114 -112 219 -294 259 -38 9 -87 19 -108 22 -30 5 -41 13 -56 43 -68
132 -215 237 -386 275 -43 10 -74 23 -80 33 -26 45 -82 96 -132 121 -44 21
-72 27 -129 28 l-73 2 -40 60 c-103 153 -278 262 -498 309 l-83 17 83 87 c164
170 243 356 256 608 l6 124 70 29 c39 17 73 34 78 38 4 4 1 24 -8 44 -21 51
-19 133 6 187 11 25 47 82 79 126 70 96 139 232 166 328 18 64 23 71 69 101
53 33 138 122 130 135 -3 4 -18 10 -33 13 -29 6 -92 52 -92 66 0 5 19 16 42
27 47 21 144 113 131 123 -4 4 -30 13 -58 20 -96 24 -193 99 -235 181 l-20 40
52 0 c84 0 226 34 316 75 80 37 92 54 37 55 -99 1 -200 94 -246 227 -23 66
-36 173 -21 173 6 0 61 -36 124 -81z m-3712 -794 c35 -18 50 -43 50 -84 l0
-30 -35 15 c-47 19 -84 18 -123 -6 -47 -29 -72 -76 -72 -135 0 -83 11 -85 64
-11 48 67 72 80 95 52 10 -12 7 -17 -16 -29 -66 -35 -99 -105 -90 -192 7 -69
35 -121 102 -192 58 -61 95 -124 95 -161 0 -31 -17 -27 -34 7 -9 16 -50 75
-91 131 -100 134 -129 182 -154 257 -26 76 -28 199 -6 265 16 47 65 104 100
119 32 13 84 10 115 -6z m3301 -8 c75 -50 104 -128 96 -258 -6 -113 -42 -193
-160 -353 -48 -66 -95 -132 -105 -148 -24 -41 -36 -35 -29 17 9 60 47 133 103
196 25 28 50 62 55 76 12 33 11 135 -2 170 -13 35 -58 83 -78 83 -12 0 -11 5
6 21 35 35 52 22 136 -105 12 -19 27 15 27 62 0 113 -102 192 -191 148 -17 -9
-34 -16 -36 -16 -2 0 -3 19 -1 42 2 35 9 46 37 65 44 30 98 30 142 0z m-779
-63 c34 -39 27 -85 -22 -138 -59 -64 -124 -89 -235 -89 -96 0 -144 13 -222 59
-36 21 -43 30 -43 56 0 17 12 52 27 77 l27 46 7 -55 c6 -48 13 -60 48 -92 97
-86 244 -68 312 39 22 35 29 59 29 95 l0 49 28 -15 c15 -8 35 -22 44 -32z
m-1798 14 c3 -13 7 -39 11 -59 20 -126 159 -182 283 -114 52 28 71 50 103 114
l16 34 17 -26 c27 -40 24 -86 -7 -113 -70 -60 -269 -94 -352 -60 -60 25 -113
65 -136 103 -18 28 -19 38 -10 65 12 33 48 78 63 78 4 0 10 -10 12 -22z m1614
0 c7 -7 12 -24 12 -38 0 -34 -17 -50 -52 -50 -18 0 -33 8 -44 25 -15 23 -15
27 0 50 18 27 63 34 84 13z m-1418 -27 c20 -38 -13 -71 -51 -51 -21 12 -25 40
-7 58 18 18 46 14 58 -7z m110 -15 c0 -29 -24 -40 -44 -20 -20 20 -9 44 20 44
19 0 24 -5 24 -24z m1165 4 c4 -6 1 -18 -6 -26 -11 -13 -14 -13 -27 0 -8 8
-11 19 -8 25 9 14 33 14 41 1z m-1724 -20 c34 0 39 -4 89 -80 72 -110 93 -124
200 -129 139 -8 216 -4 277 14 59 17 179 77 198 98 6 7 21 21 34 32 l24 20 -7
-65 c-10 -86 -55 -223 -99 -303 -35 -62 -38 -65 -94 -80 -111 -31 -195 -40
-308 -34 -125 7 -224 31 -336 84 l-77 35 -13 62 c-15 66 -19 283 -6 330 7 26
11 28 45 22 20 -3 53 -6 73 -6z m2356 -157 c-3 -87 -11 -175 -17 -196 -37
-126 -184 -174 -511 -164 -228 6 -256 16 -298 109 -33 74 -124 348 -118 355 3
2 20 -9 38 -25 50 -43 137 -96 194 -118 42 -16 75 -19 200 -18 88 0 165 6 187
13 59 20 116 67 148 125 28 49 35 55 78 64 26 5 60 10 76 11 l29 1 -6 -157z
m-1214 32 c13 -14 30 -45 36 -69 6 -24 24 -73 41 -110 16 -37 39 -111 50 -163
11 -59 35 -129 59 -180 l40 -83 -37 -16 c-93 -38 -161 -48 -268 -37 -74 8
-114 17 -143 34 -46 26 -47 26 -25 77 8 20 28 91 44 158 16 66 38 142 48 170
11 27 25 76 32 109 14 70 33 110 57 124 27 16 38 13 66 -14z m-345 -473 c-87
-89 -109 -137 -90 -199 6 -20 10 -39 8 -41 -3 -2 -37 -12 -78 -22 -144 -37
-278 -102 -395 -193 -54 -41 -67 -47 -77 -36 -89 98 -247 331 -234 345 2 2 22
-2 44 -9 24 -7 102 -12 209 -11 154 0 178 3 260 27 107 32 288 119 365 176 30
22 57 40 59 41 3 0 -30 -35 -71 -78z m772 -45 c224 -121 484 -164 681 -113 30
8 55 13 57 11 2 -2 -28 -44 -66 -94 -38 -50 -92 -136 -121 -192 l-53 -100 -34
40 c-107 124 -330 231 -484 231 -39 0 -40 1 -33 28 23 81 -4 166 -80 250 l-42
46 45 -31 c25 -17 83 -51 130 -76z m-1826 -58 c-9 -18 -25 -56 -35 -83 l-19
-51 4 61 c2 41 13 77 32 115 29 54 29 54 32 22 2 -17 -4 -46 -14 -64z m46
-179 c-16 -88 -37 -174 -63 -260 l-10 -35 -8 27 c-11 42 9 175 36 245 23 56
57 124 61 120 1 -1 -6 -45 -16 -97z m2697 -16 c19 -50 27 -96 30 -169 l5 -100
-31 43 c-26 35 -59 132 -45 132 2 0 11 -14 19 -31 24 -46 28 -29 9 37 -20 70
-34 178 -21 165 5 -5 20 -40 34 -77z m-1786 -55 c-202 -52 -364 -171 -488
-356 -30 -46 -57 -83 -59 -83 -2 0 11 31 30 69 67 132 177 247 301 313 73 39
196 77 250 77 35 0 31 -3 -34 -20z m874 6 c90 -19 235 -91 303 -150 28 -26 72
-72 96 -103 44 -58 111 -180 103 -189 -3 -2 -22 22 -44 54 -51 78 -164 196
-239 249 -73 52 -187 108 -275 134 -77 22 -43 26 56 5z m-492 -427 c27 -19 27
-19 56 1 48 34 82 36 125 8 50 -34 103 -52 216 -72 152 -27 219 -66 206 -119
-3 -14 -23 -44 -45 -66 -46 -48 -70 -51 -173 -15 -40 14 -100 31 -133 38 l-60
14 57 16 c31 10 61 17 67 17 26 0 8 18 -23 24 -19 4 -49 14 -67 24 -48 24
-293 31 -352 9 -23 -9 -69 -23 -102 -33 l-60 -18 78 -14 c42 -9 77 -19 77 -22
0 -12 -112 -59 -169 -71 -108 -23 -201 7 -232 75 -24 55 -10 78 57 89 71 12
226 63 322 107 88 40 107 41 155 8z m-1349 -732 c-22 -12 -55 -33 -72 -46 -30
-22 -323 -343 -330 -361 -2 -5 -12 -9 -23 -9 -18 0 -18 2 5 48 72 142 217 283
372 361 70 36 107 41 48 7z m2909 -60 c94 -62 223 -211 281 -323 29 -58 0 -36
-72 55 -68 85 -201 220 -292 295 l-45 38 38 -15 c20 -8 61 -31 90 -50z m-2447
-96 c43 -52 112 -130 153 -172 l74 -78 -151 0 c-127 0 -151 2 -156 16 -6 16
-9 340 -2 333 2 -2 39 -47 82 -99z m1929 -127 l-7 -123 -129 0 c-71 0 -129 2
-129 5 0 3 33 45 73 93 40 49 100 126 133 171 l59 83 3 -53 c2 -30 1 -109 -3
-176z m928 43 c59 -21 114 -64 147 -114 32 -48 36 -62 20 -62 -5 0 -18 17 -29
38 -10 20 -32 49 -48 64 -30 29 -107 67 -135 68 -9 0 -20 5 -23 10 -9 14 23
12 68 -4z m-3873 -55 c-36 -32 -74 -75 -85 -95 -15 -28 -26 -36 -47 -36 -15 0
-30 4 -33 10 -18 30 86 138 158 164 72 25 74 18 7 -43z m3620 -270 c593 -6
595 -6 646 -29 28 -13 67 -39 85 -58 55 -57 54 -90 -47 -935 l-88 -739 -24 0
c-24 0 -24 2 -18 58 11 102 65 757 86 1035 25 338 26 447 4 493 -17 35 -85 84
-117 84 -12 0 -46 -58 -112 -189 -251 -502 -544 -928 -928 -1348 l-121 -133
-263 0 c-145 0 -263 2 -263 3 0 2 37 35 82 73 269 225 581 565 795 864 77 109
155 230 147 230 -8 0 -150 -118 -264 -219 -47 -42 -195 -184 -330 -316 -330
-324 -486 -447 -735 -580 l-102 -55 -159 0 c-155 0 -313 14 -524 45 -164 24
-444 76 -453 85 -4 4 63 28 150 55 87 26 160 49 162 51 3 3 -101 2 -230 -2
-393 -11 -837 24 -1218 97 -57 11 -105 18 -108 16 -2 -3 3 -74 12 -158 19
-195 19 -189 -5 -189 -11 0 -20 6 -20 13 0 6 -38 309 -85 672 -88 687 -98 805
-71 916 19 81 45 120 96 147 l44 22 1691 -1 c929 -1 1958 -4 2285 -8z m-4320
-195 c0 -8 -11 -17 -25 -20 -14 -4 -25 -11 -25 -16 0 -5 -21 -29 -46 -52 -38
-35 -74 -84 -74 -101 0 -2 15 -2 33 1 l32 4 -53 -54 c-59 -60 -72 -94 -73
-188 -1 -94 -15 -40 -29 115 -18 201 11 262 149 311 50 18 111 18 111 0z
m5440 -27 c23 -7 52 -26 66 -42 24 -28 24 -31 23 -210 l-1 -182 -13 106 c-15
124 -42 185 -108 246 -25 23 -68 50 -96 60 -77 27 -68 47 18 40 38 -3 88 -11
111 -18z m256 -280 c27 -10 91 -66 105 -90 7 -15 4 -30 -17 -64 -30 -53 -51
-51 -28 3 12 31 13 38 1 47 -152 115 -170 145 -61 104z m-6046 5 c0 -3 -30
-34 -66 -68 l-65 -61 21 -60 c30 -87 20 -87 -27 2 l-42 78 82 57 c79 55 97 65
97 52z m6340 -556 c0 -11 21 -26 60 -44 70 -31 155 -115 192 -190 25 -49 53
-143 45 -151 -3 -2 -14 11 -26 31 -55 88 -185 166 -279 166 l-53 0 8 38 c4 20
8 89 7 152 l-1 115 23 -50 c13 -27 24 -58 24 -67z m-6641 -123 c5 -21 8 -41 6
-45 -3 -4 -24 -10 -47 -14 -70 -11 -197 -79 -255 -136 -29 -29 -53 -48 -53
-43 0 20 51 157 69 186 32 52 93 104 152 131 48 23 59 32 80 78 l24 52 7 -85
c3 -47 11 -103 17 -124z m7438 -517 c-3 -35 -20 -299 -39 -588 l-33 -525 -6
255 c-3 140 -7 382 -8 536 l-1 281 -37 6 c-21 3 -173 23 -338 44 l-300 38 155
5 c85 3 258 7 384 8 l229 2 -6 -62z m-7152 -298 c7 -11 45 -320 45 -367 l0
-33 -101 0 -101 0 6 -37 c10 -62 96 -783 96 -804 0 -18 -9 -19 -168 -19 l-168
0 -12 93 c-6 50 -25 200 -42 332 -17 132 -36 283 -43 335 l-12 95 -97 3 c-60
2 -100 7 -106 15 -9 12 -52 316 -52 370 l0 27 374 0 c229 0 377 -4 381 -10z
m872 -4 c5 -5 33 -302 33 -348 l0 -48 -191 0 c-176 0 -190 -1 -187 -17 3 -16
22 -18 195 -21 190 -2 193 -3 197 -25 11 -49 36 -359 30 -368 -3 -6 -77 -9
-187 -8 -159 1 -182 -1 -185 -15 -3 -14 19 -16 191 -16 l194 0 12 -102 c6 -57
14 -145 18 -195 l6 -93 -371 0 c-205 0 -372 3 -372 8 0 4 -14 126 -30 272 -17
146 -46 407 -65 580 -19 173 -38 327 -41 342 -3 15 -3 36 0 45 5 17 29 18 378
15 205 -2 374 -5 375 -6z m847 -48 c14 -128 27 -329 21 -338 -3 -5 -41 -10
-84 -10 -132 0 -212 -56 -242 -170 -24 -89 36 -212 128 -267 42 -24 62 -29
148 -33 l100 -5 12 -135 c6 -74 12 -161 12 -192 l1 -58 -130 0 c-115 0 -138 3
-212 28 -191 64 -335 215 -405 421 -37 112 -44 303 -14 421 48 190 177 327
354 375 31 8 103 14 178 14 l127 1 6 -52z m461 40 c2 -7 11 -105 20 -217 9
-112 18 -208 21 -212 7 -12 161 -12 168 0 3 4 -1 101 -10 215 -8 114 -12 211
-8 217 6 11 366 10 384 -1 9 -5 80 -1073 80 -1207 l0 -43 -193 0 -194 0 -12
198 c-7 108 -14 203 -17 210 -2 8 -29 12 -90 12 l-87 0 7 -72 c3 -40 9 -135
13 -210 l6 -138 -195 0 -195 0 -6 88 c-7 97 -72 932 -83 1059 -4 45 -4 89 -1
97 6 14 33 16 197 16 143 0 192 -3 195 -12z m1430 -27 c3 -5 2 -93 -1 -194
l-7 -184 -88 -5 c-70 -4 -97 -11 -132 -31 -103 -60 -145 -190 -96 -297 44 -98
99 -132 228 -139 l96 -6 1 -187 0 -188 -130 0 c-139 0 -186 9 -273 53 -128 65
-230 189 -279 340 -24 73 -28 98 -28 222 -1 120 2 151 22 215 62 200 203 348
373 394 61 17 304 22 314 7z m750 -6 c255 -65 424 -299 425 -588 1 -307 -173
-548 -446 -617 -97 -25 -161 -25 -256 -1 -100 26 -163 59 -231 121 -119 109
-182 248 -193 428 -8 131 13 239 66 350 73 152 231 282 381 311 71 14 190 12
254 -4z m1001 2 c128 -2 132 -3 205 -39 127 -64 223 -177 270 -320 21 -65 24
-90 24 -233 -1 -147 -3 -166 -27 -233 -69 -191 -188 -315 -365 -379 -61 -22
-76 -23 -343 -23 l-280 0 0 53 c2 154 38 1166 43 1174 5 8 92 8 473 0z m1349
-9 c2 -7 -1 -94 -8 -193 l-12 -180 -185 -5 c-166 -4 -185 -7 -188 -22 -3 -17
11 -18 178 -18 135 0 182 -3 185 -12 3 -7 -1 -94 -8 -193 l-12 -180 -182 -3
c-154 -2 -183 -5 -183 -17 0 -13 28 -15 182 -15 l181 0 -7 -127 c-3 -71 -9
-156 -13 -190 l-6 -63 -351 0 -351 0 3 72 c7 179 53 1039 59 1096 l6 62 354 0
c274 0 355 -3 358 -12z m-7651 -1018 c68 -242 125 -443 128 -445 2 -3 263 -29
579 -60 316 -30 585 -57 599 -59 14 -2 -268 -3 -627 -2 -359 1 -655 5 -659 9
-4 4 -38 215 -75 469 -74 502 -81 560 -73 540 3 -7 61 -210 128 -452z m4120
-346 c430 -134 657 -204 744 -230 51 -15 89 -31 85 -35 -4 -4 -73 -24 -153
-44 -80 -20 -305 -79 -500 -131 l-355 -94 -507 132 c-280 73 -508 135 -508
139 0 3 75 29 168 56 238 71 545 168 697 218 72 24 134 44 139 44 5 1 90 -24
190 -55z"/>
<path d="M6259 1920 c-84 -45 -149 -166 -134 -248 15 -81 70 -151 144 -184 41
-19 45 -19 87 -3 89 34 153 152 141 257 -17 138 -141 231 -238 178z"/>
<path d="M7316 1899 c-3 -19 -8 -123 -11 -231 l-6 -198 58 0 c75 1 128 25 180
83 70 81 81 182 29 272 -39 67 -90 97 -175 103 l-70 5 -5 -34z"/>
</g>
</svg>
