<?xml version="1.0" standalone="no"?>
<svg xmlns:xlink="http://www.w3.org/1999/xlink" id="wave" style="transform:rotate(0deg); transition: 0.3s" viewBox="0 100 1920 1080" version="1.1" xmlns="http://www.w3.org/2000/svg"><defs><linearGradient id="sw-gradient-0" x1="0" x2="0" y1="1" y2="0"><stop stop-color="rgba(67, 216, 80, 1)" offset="0%"/><stop stop-color="rgba(142, 223, 149, 1)" offset="100%"/></linearGradient></defs><path style="transform:translate(0, 0px); opacity:1" fill="url(#sw-gradient-0)" d="M0,120L60,146.7C120,173,240,227,360,213.3C480,200,600,120,720,120C840,120,960,200,1080,220C1200,240,1320,200,1440,186.7C1560,173,1680,187,1800,180C1920,173,2040,147,2160,153.3C2280,160,2400,200,2520,193.3C2640,187,2760,133,2880,133.3C3000,133,3120,187,3240,186.7C3360,187,3480,133,3600,93.3C3720,53,3840,27,3960,26.7C4080,27,4200,53,4320,86.7C4440,120,4560,160,4680,193.3C4800,227,4920,253,5040,226.7C5160,200,5280,120,5400,133.3C5520,147,5640,253,5760,253.3C5880,253,6000,147,6120,86.7C6240,27,6360,13,6480,66.7C6600,120,6720,240,6840,253.3C6960,267,7080,173,7200,120C7320,67,7440,53,7560,73.3C7680,93,7800,147,7920,180C8040,213,8160,227,8280,220C8400,213,8520,187,8580,173.3L8640,160L8640,400L8580,400C8520,400,8400,400,8280,400C8160,400,8040,400,7920,400C7800,400,7680,400,7560,400C7440,400,7320,400,7200,400C7080,400,6960,400,6840,400C6720,400,6600,400,6480,400C6360,400,6240,400,6120,400C6000,400,5880,400,5760,400C5640,400,5520,400,5400,400C5280,400,5160,400,5040,400C4920,400,4800,400,4680,400C4560,400,4440,400,4320,400C4200,400,4080,400,3960,400C3840,400,3720,400,3600,400C3480,400,3360,400,3240,400C3120,400,3000,400,2880,400C2760,400,2640,400,2520,400C2400,400,2280,400,2160,400C2040,400,1920,400,1800,400C1680,400,1560,400,1440,400C1320,400,1200,400,1080,400C960,400,840,400,720,400C600,400,480,400,360,400C240,400,120,400,60,400L0,400Z"/><defs><linearGradient id="sw-gradient-1" x1="0" x2="0" y1="1" y2="0"><stop stop-color="rgba(67, 216, 80, 1)" offset="0%"/><stop stop-color="rgba(142, 223, 149, 1)" offset="100%"/></linearGradient></defs><path style="transform:translate(0, 50px); opacity:0.9" fill="url(#sw-gradient-1)" d="M0,0L60,60C120,120,240,240,360,253.3C480,267,600,173,720,146.7C840,120,960,160,1080,206.7C1200,253,1320,307,1440,300C1560,293,1680,227,1800,186.7C1920,147,2040,133,2160,166.7C2280,200,2400,280,2520,313.3C2640,347,2760,333,2880,306.7C3000,280,3120,240,3240,220C3360,200,3480,200,3600,213.3C3720,227,3840,253,3960,220C4080,187,4200,93,4320,66.7C4440,40,4560,80,4680,93.3C4800,107,4920,93,5040,126.7C5160,160,5280,240,5400,246.7C5520,253,5640,187,5760,140C5880,93,6000,67,6120,93.3C6240,120,6360,200,6480,246.7C6600,293,6720,307,6840,280C6960,253,7080,187,7200,140C7320,93,7440,67,7560,80C7680,93,7800,147,7920,160C8040,173,8160,147,8280,153.3C8400,160,8520,200,8580,220L8640,240L8640,400L8580,400C8520,400,8400,400,8280,400C8160,400,8040,400,7920,400C7800,400,7680,400,7560,400C7440,400,7320,400,7200,400C7080,400,6960,400,6840,400C6720,400,6600,400,6480,400C6360,400,6240,400,6120,400C6000,400,5880,400,5760,400C5640,400,5520,400,5400,400C5280,400,5160,400,5040,400C4920,400,4800,400,4680,400C4560,400,4440,400,4320,400C4200,400,4080,400,3960,400C3840,400,3720,400,3600,400C3480,400,3360,400,3240,400C3120,400,3000,400,2880,400C2760,400,2640,400,2520,400C2400,400,2280,400,2160,400C2040,400,1920,400,1800,400C1680,400,1560,400,1440,400C1320,400,1200,400,1080,400C960,400,840,400,720,400C600,400,480,400,360,400C240,400,120,400,60,400L0,400Z"/><defs><linearGradient id="sw-gradient-2" x1="0" x2="0" y1="1" y2="0"><stop stop-color="rgba(67, 216, 80, 1)" offset="0%"/><stop stop-color="rgba(142, 223, 149, 1)" offset="100%"/></linearGradient></defs><path style="transform:translate(0, 100px); opacity:0.8" fill="url(#sw-gradient-2)" d="M0,40L60,80C120,120,240,200,360,200C480,200,600,120,720,133.3C840,147,960,253,1080,306.7C1200,360,1320,360,1440,313.3C1560,267,1680,173,1800,126.7C1920,80,2040,80,2160,106.7C2280,133,2400,187,2520,233.3C2640,280,2760,320,2880,333.3C3000,347,3120,333,3240,320C3360,307,3480,293,3600,253.3C3720,213,3840,147,3960,126.7C4080,107,4200,133,4320,146.7C4440,160,4560,160,4680,166.7C4800,173,4920,187,5040,213.3C5160,240,5280,280,5400,266.7C5520,253,5640,187,5760,153.3C5880,120,6000,120,6120,160C6240,200,6360,280,6480,273.3C6600,267,6720,173,6840,120C6960,67,7080,53,7200,60C7320,67,7440,93,7560,140C7680,187,7800,253,7920,240C8040,227,8160,133,8280,86.7C8400,40,8520,40,8580,40L8640,40L8640,400L8580,400C8520,400,8400,400,8280,400C8160,400,8040,400,7920,400C7800,400,7680,400,7560,400C7440,400,7320,400,7200,400C7080,400,6960,400,6840,400C6720,400,6600,400,6480,400C6360,400,6240,400,6120,400C6000,400,5880,400,5760,400C5640,400,5520,400,5400,400C5280,400,5160,400,5040,400C4920,400,4800,400,4680,400C4560,400,4440,400,4320,400C4200,400,4080,400,3960,400C3840,400,3720,400,3600,400C3480,400,3360,400,3240,400C3120,400,3000,400,2880,400C2760,400,2640,400,2520,400C2400,400,2280,400,2160,400C2040,400,1920,400,1800,400C1680,400,1560,400,1440,400C1320,400,1200,400,1080,400C960,400,840,400,720,400C600,400,480,400,360,400C240,400,120,400,60,400L0,400Z"/><defs><linearGradient id="sw-gradient-3" x1="0" x2="0" y1="1" y2="0"><stop stop-color="rgba(67, 216, 80, 1)" offset="0%"/><stop stop-color="rgba(142, 223, 149, 1)" offset="100%"/></linearGradient></defs><path style="transform:translate(0, 150px); opacity:0.7" fill="url(#sw-gradient-3)" d="M0,360L60,300C120,240,240,120,360,93.3C480,67,600,133,720,146.7C840,160,960,120,1080,113.3C1200,107,1320,133,1440,120C1560,107,1680,53,1800,80C1920,107,2040,213,2160,220C2280,227,2400,133,2520,133.3C2640,133,2760,227,2880,253.3C3000,280,3120,240,3240,226.7C3360,213,3480,227,3600,213.3C3720,200,3840,160,3960,126.7C4080,93,4200,67,4320,53.3C4440,40,4560,40,4680,80C4800,120,4920,200,5040,213.3C5160,227,5280,173,5400,186.7C5520,200,5640,280,5760,266.7C5880,253,6000,147,6120,93.3C6240,40,6360,40,6480,53.3C6600,67,6720,93,6840,106.7C6960,120,7080,120,7200,153.3C7320,187,7440,253,7560,240C7680,227,7800,133,7920,80C8040,27,8160,13,8280,53.3C8400,93,8520,187,8580,233.3L8640,280L8640,400L8580,400C8520,400,8400,400,8280,400C8160,400,8040,400,7920,400C7800,400,7680,400,7560,400C7440,400,7320,400,7200,400C7080,400,6960,400,6840,400C6720,400,6600,400,6480,400C6360,400,6240,400,6120,400C6000,400,5880,400,5760,400C5640,400,5520,400,5400,400C5280,400,5160,400,5040,400C4920,400,4800,400,4680,400C4560,400,4440,400,4320,400C4200,400,4080,400,3960,400C3840,400,3720,400,3600,400C3480,400,3360,400,3240,400C3120,400,3000,400,2880,400C2760,400,2640,400,2520,400C2400,400,2280,400,2160,400C2040,400,1920,400,1800,400C1680,400,1560,400,1440,400C1320,400,1200,400,1080,400C960,400,840,400,720,400C600,400,480,400,360,400C240,400,120,400,60,400L0,400Z"/></svg>