<svg id="wave" style="transform:rotate(180deg); transition: 0.3s" viewBox="0 0 1920 1080" version="1.1" xmlns="http://www.w3.org/2000/svg"><defs><linearGradient id="sw-gradient-0" x1="0" x2="0" y1="1" y2="0"><stop stop-color="rgba(67, 216, 80, 1)" offset="0%"></stop><stop stop-color="rgba(67, 216, 80, 1)" offset="100%"></stop></linearGradient></defs><path style="transform:translate(0, 0px); opacity:1" fill="url(#sw-gradient-0)" d="M0,196L12,228.7C24,261,48,327,72,351.2C96,376,120,359,144,359.3C168,359,192,376,216,367.5C240,359,264,327,288,302.2C312,278,336,261,360,245C384,229,408,212,432,245C456,278,480,359,504,367.5C528,376,552,310,576,285.8C600,261,624,278,648,302.2C672,327,696,359,720,383.8C744,408,768,425,792,367.5C816,310,840,180,864,179.7C888,180,912,310,936,326.7C960,343,984,245,1008,212.3C1032,180,1056,212,1080,220.5C1104,229,1128,212,1152,245C1176,278,1200,359,1224,392C1248,425,1272,408,1296,400.2C1320,392,1344,392,1368,367.5C1392,343,1416,294,1440,245C1464,196,1488,147,1512,106.2C1536,65,1560,33,1584,65.3C1608,98,1632,196,1656,269.5C1680,343,1704,392,1716,416.5L1728,441L1728,490L1716,490C1704,490,1680,490,1656,490C1632,490,1608,490,1584,490C1560,490,1536,490,1512,490C1488,490,1464,490,1440,490C1416,490,1392,490,1368,490C1344,490,1320,490,1296,490C1272,490,1248,490,1224,490C1200,490,1176,490,1152,490C1128,490,1104,490,1080,490C1056,490,1032,490,1008,490C984,490,960,490,936,490C912,490,888,490,864,490C840,490,816,490,792,490C768,490,744,490,720,490C696,490,672,490,648,490C624,490,600,490,576,490C552,490,528,490,504,490C480,490,456,490,432,490C408,490,384,490,360,490C336,490,312,490,288,490C264,490,240,490,216,490C192,490,168,490,144,490C120,490,96,490,72,490C48,490,24,490,12,490L0,490Z"></path><defs><linearGradient id="sw-gradient-1" x1="0" x2="0" y1="1" y2="0"><stop stop-color="rgba(67, 216, 80, 1)" offset="0%"></stop><stop stop-color="rgba(67, 216, 80, 1)" offset="100%"></stop></linearGradient></defs><path style="transform:translate(0, 50px); opacity:0.9" fill="url(#sw-gradient-1)" d="M0,196L12,196C24,196,48,196,72,220.5C96,245,120,294,144,277.7C168,261,192,180,216,163.3C240,147,264,196,288,179.7C312,163,336,82,360,114.3C384,147,408,294,432,367.5C456,441,480,441,504,392C528,343,552,245,576,204.2C600,163,624,180,648,212.3C672,245,696,294,720,326.7C744,359,768,376,792,326.7C816,278,840,163,864,98C888,33,912,16,936,8.2C960,0,984,0,1008,0C1032,0,1056,0,1080,8.2C1104,16,1128,33,1152,49C1176,65,1200,82,1224,73.5C1248,65,1272,33,1296,16.3C1320,0,1344,0,1368,49C1392,98,1416,196,1440,269.5C1464,343,1488,392,1512,367.5C1536,343,1560,245,1584,228.7C1608,212,1632,278,1656,253.2C1680,229,1704,114,1716,57.2L1728,0L1728,490L1716,490C1704,490,1680,490,1656,490C1632,490,1608,490,1584,490C1560,490,1536,490,1512,490C1488,490,1464,490,1440,490C1416,490,1392,490,1368,490C1344,490,1320,490,1296,490C1272,490,1248,490,1224,490C1200,490,1176,490,1152,490C1128,490,1104,490,1080,490C1056,490,1032,490,1008,490C984,490,960,490,936,490C912,490,888,490,864,490C840,490,816,490,792,490C768,490,744,490,720,490C696,490,672,490,648,490C624,490,600,490,576,490C552,490,528,490,504,490C480,490,456,490,432,490C408,490,384,490,360,490C336,490,312,490,288,490C264,490,240,490,216,490C192,490,168,490,144,490C120,490,96,490,72,490C48,490,24,490,12,490L0,490Z"></path><defs><linearGradient id="sw-gradient-2" x1="0" x2="0" y1="1" y2="0"><stop stop-color="rgba(67, 216, 80, 1)" offset="0%"></stop><stop stop-color="rgba(67, 216, 80, 1)" offset="100%"></stop></linearGradient></defs><path style="transform:translate(0, 100px); opacity:0.8" fill="url(#sw-gradient-2)" d="M0,0L12,24.5C24,49,48,98,72,138.8C96,180,120,212,144,212.3C168,212,192,180,216,171.5C240,163,264,180,288,179.7C312,180,336,163,360,130.7C384,98,408,49,432,98C456,147,480,294,504,334.8C528,376,552,310,576,245C600,180,624,114,648,138.8C672,163,696,278,720,326.7C744,376,768,359,792,302.2C816,245,840,147,864,155.2C888,163,912,278,936,326.7C960,376,984,359,1008,343C1032,327,1056,310,1080,302.2C1104,294,1128,294,1152,318.5C1176,343,1200,392,1224,375.7C1248,359,1272,278,1296,204.2C1320,131,1344,65,1368,89.8C1392,114,1416,229,1440,261.3C1464,294,1488,245,1512,204.2C1536,163,1560,131,1584,138.8C1608,147,1632,196,1656,187.8C1680,180,1704,114,1716,81.7L1728,49L1728,490L1716,490C1704,490,1680,490,1656,490C1632,490,1608,490,1584,490C1560,490,1536,490,1512,490C1488,490,1464,490,1440,490C1416,490,1392,490,1368,490C1344,490,1320,490,1296,490C1272,490,1248,490,1224,490C1200,490,1176,490,1152,490C1128,490,1104,490,1080,490C1056,490,1032,490,1008,490C984,490,960,490,936,490C912,490,888,490,864,490C840,490,816,490,792,490C768,490,744,490,720,490C696,490,672,490,648,490C624,490,600,490,576,490C552,490,528,490,504,490C480,490,456,490,432,490C408,490,384,490,360,490C336,490,312,490,288,490C264,490,240,490,216,490C192,490,168,490,144,490C120,490,96,490,72,490C48,490,24,490,12,490L0,490Z"></path><defs><linearGradient id="sw-gradient-3" x1="0" x2="0" y1="1" y2="0"><stop stop-color="rgba(67, 216, 80, 1)" offset="0%"></stop><stop stop-color="rgba(67, 216, 80, 1)" offset="100%"></stop></linearGradient></defs><path style="transform:translate(0, 150px); opacity:0.7" fill="url(#sw-gradient-3)" d="M0,98L12,155.2C24,212,48,327,72,367.5C96,408,120,376,144,375.7C168,376,192,408,216,367.5C240,327,264,212,288,147C312,82,336,65,360,122.5C384,180,408,310,432,375.7C456,441,480,441,504,424.7C528,408,552,376,576,310.3C600,245,624,147,648,130.7C672,114,696,180,720,187.8C744,196,768,147,792,179.7C816,212,840,327,864,383.8C888,441,912,441,936,408.3C960,376,984,310,1008,310.3C1032,310,1056,376,1080,400.2C1104,425,1128,408,1152,375.7C1176,343,1200,294,1224,245C1248,196,1272,147,1296,130.7C1320,114,1344,131,1368,187.8C1392,245,1416,343,1440,343C1464,343,1488,245,1512,196C1536,147,1560,147,1584,179.7C1608,212,1632,278,1656,302.2C1680,327,1704,310,1716,302.2L1728,294L1728,490L1716,490C1704,490,1680,490,1656,490C1632,490,1608,490,1584,490C1560,490,1536,490,1512,490C1488,490,1464,490,1440,490C1416,490,1392,490,1368,490C1344,490,1320,490,1296,490C1272,490,1248,490,1224,490C1200,490,1176,490,1152,490C1128,490,1104,490,1080,490C1056,490,1032,490,1008,490C984,490,960,490,936,490C912,490,888,490,864,490C840,490,816,490,792,490C768,490,744,490,720,490C696,490,672,490,648,490C624,490,600,490,576,490C552,490,528,490,504,490C480,490,456,490,432,490C408,490,384,490,360,490C336,490,312,490,288,490C264,490,240,490,216,490C192,490,168,490,144,490C120,490,96,490,72,490C48,490,24,490,12,490L0,490Z"></path></svg>